<svg xmlns="http://www.w3.org/2000/svg" viewBox="0 0 1125 1125" width="1125" height="1125">
<rect width="1125" height="1125" fill="#fff"/><g transform="translate(50,50)"><g transform="translate(250,0) scale(0.25,0.25)"><rect width="100" height="100"/></g><g transform="translate(275,0) scale(0.25,0.25)"><rect width="100" height="100"/></g><g transform="translate(325,0) scale(0.25,0.25)"><rect width="100" height="100"/></g><g transform="translate(450,0) scale(0.25,0.25)"><rect width="100" height="100"/></g><g transform="translate(550,0) scale(0.25,0.25)"><rect width="100" height="100"/></g><g transform="translate(600,0) scale(0.25,0.25)"><rect width="100" height="100"/></g><g transform="translate(650,0) scale(0.25,0.25)"><rect width="100" height="100"/></g><g transform="translate(675,0) scale(0.25,0.25)"><rect width="100" height="100"/></g><g transform="translate(750,0) scale(0.25,0.25)"><rect width="100" height="100"/></g><g transform="translate(200,25) scale(0.25,0.25)"><rect width="100" height="100"/></g><g transform="translate(325,25) scale(0.25,0.25)"><rect width="100" height="100"/></g><g transform="translate(350,25) scale(0.25,0.25)"><rect width="100" height="100"/></g><g transform="translate(375,25) scale(0.25,0.25)"><rect width="100" height="100"/></g><g transform="translate(400,25) scale(0.25,0.25)"><rect width="100" height="100"/></g><g transform="translate(450,25) scale(0.25,0.25)"><rect width="100" height="100"/></g><g transform="translate(475,25) scale(0.25,0.25)"><rect width="100" height="100"/></g><g transform="translate(525,25) scale(0.25,0.25)"><rect width="100" height="100"/></g><g transform="translate(550,25) scale(0.25,0.25)"><rect width="100" height="100"/></g><g transform="translate(700,25) scale(0.25,0.25)"><rect width="100" height="100"/></g><g transform="translate(775,25) scale(0.25,0.25)"><rect width="100" height="100"/></g><g transform="translate(225,50) scale(0.25,0.25)"><rect width="100" height="100"/></g><g transform="translate(250,50) scale(0.25,0.25)"><rect width="100" height="100"/></g><g transform="translate(375,50) scale(0.25,0.25)"><rect width="100" height="100"/></g><g transform="translate(450,50) scale(0.25,0.25)"><rect width="100" height="100"/></g><g transform="translate(475,50) scale(0.25,0.25)"><rect width="100" height="100"/></g><g transform="translate(575,50) scale(0.25,0.25)"><rect width="100" height="100"/></g><g transform="translate(625,50) scale(0.25,0.25)"><rect width="100" height="100"/></g><g transform="translate(725,50) scale(0.25,0.25)"><rect width="100" height="100"/></g><g transform="translate(750,50) scale(0.25,0.25)"><rect width="100" height="100"/></g><g transform="translate(800,50) scale(0.25,0.25)"><rect width="100" height="100"/></g><g transform="translate(250,75) scale(0.25,0.25)"><rect width="100" height="100"/></g><g transform="translate(300,75) scale(0.25,0.25)"><rect width="100" height="100"/></g><g transform="translate(325,75) scale(0.25,0.25)"><rect width="100" height="100"/></g><g transform="translate(375,75) scale(0.25,0.25)"><rect width="100" height="100"/></g><g transform="translate(400,75) scale(0.25,0.25)"><rect width="100" height="100"/></g><g transform="translate(475,75) scale(0.25,0.25)"><rect width="100" height="100"/></g><g transform="translate(525,75) scale(0.25,0.25)"><rect width="100" height="100"/></g><g transform="translate(550,75) scale(0.25,0.25)"><rect width="100" height="100"/></g><g transform="translate(650,75) scale(0.25,0.25)"><rect width="100" height="100"/></g><g transform="translate(700,75) scale(0.25,0.25)"><rect width="100" height="100"/></g><g transform="translate(725,75) scale(0.25,0.25)"><rect width="100" height="100"/></g><g transform="translate(775,75) scale(0.25,0.25)"><rect width="100" height="100"/></g><g transform="translate(225,100) scale(0.25,0.25)"><rect width="100" height="100"/></g><g transform="translate(275,100) scale(0.25,0.25)"><rect width="100" height="100"/></g><g transform="translate(300,100) scale(0.25,0.25)"><rect width="100" height="100"/></g><g transform="translate(350,100) scale(0.25,0.25)"><rect width="100" height="100"/></g><g transform="translate(375,100) scale(0.25,0.25)"><rect width="100" height="100"/></g><g transform="translate(400,100) scale(0.25,0.25)"><rect width="100" height="100"/></g><g transform="translate(450,100) scale(0.25,0.25)"><rect width="100" height="100"/></g><g transform="translate(475,100) scale(0.25,0.25)"><rect width="100" height="100"/></g><g transform="translate(500,100) scale(0.25,0.25)"><rect width="100" height="100"/></g><g transform="translate(525,100) scale(0.25,0.25)"><rect width="100" height="100"/></g><g transform="translate(575,100) scale(0.25,0.25)"><rect width="100" height="100"/></g><g transform="translate(625,100) scale(0.25,0.25)"><rect width="100" height="100"/></g><g transform="translate(650,100) scale(0.25,0.25)"><rect width="100" height="100"/></g><g transform="translate(675,100) scale(0.25,0.25)"><rect width="100" height="100"/></g><g transform="translate(700,100) scale(0.25,0.25)"><rect width="100" height="100"/></g><g transform="translate(750,100) scale(0.25,0.25)"><rect width="100" height="100"/></g><g transform="translate(200,125) scale(0.25,0.25)"><rect width="100" height="100"/></g><g transform="translate(275,125) scale(0.25,0.25)"><rect width="100" height="100"/></g><g transform="translate(375,125) scale(0.25,0.25)"><rect width="100" height="100"/></g><g transform="translate(400,125) scale(0.25,0.25)"><rect width="100" height="100"/></g><g transform="translate(475,125) scale(0.25,0.25)"><rect width="100" height="100"/></g><g transform="translate(500,125) scale(0.25,0.25)"><rect width="100" height="100"/></g><g transform="translate(525,125) scale(0.25,0.25)"><rect width="100" height="100"/></g><g transform="translate(550,125) scale(0.25,0.25)"><rect width="100" height="100"/></g><g transform="translate(575,125) scale(0.25,0.25)"><rect width="100" height="100"/></g><g transform="translate(600,125) scale(0.25,0.25)"><rect width="100" height="100"/></g><g transform="translate(625,125) scale(0.25,0.25)"><rect width="100" height="100"/></g><g transform="translate(700,125) scale(0.25,0.25)"><rect width="100" height="100"/></g><g transform="translate(725,125) scale(0.25,0.25)"><rect width="100" height="100"/></g><g transform="translate(775,125) scale(0.25,0.25)"><rect width="100" height="100"/></g><g transform="translate(200,150) scale(0.25,0.25)"><rect width="100" height="100"/></g><g transform="translate(250,150) scale(0.25,0.25)"><rect width="100" height="100"/></g><g transform="translate(300,150) scale(0.25,0.25)"><rect width="100" height="100"/></g><g transform="translate(350,150) scale(0.25,0.25)"><rect width="100" height="100"/></g><g transform="translate(400,150) scale(0.25,0.25)"><rect width="100" height="100"/></g><g transform="translate(450,150) scale(0.25,0.25)"><rect width="100" height="100"/></g><g transform="translate(500,150) scale(0.25,0.25)"><rect width="100" height="100"/></g><g transform="translate(550,150) scale(0.25,0.25)"><rect width="100" height="100"/></g><g transform="translate(600,150) scale(0.25,0.25)"><rect width="100" height="100"/></g><g transform="translate(650,150) scale(0.25,0.25)"><rect width="100" height="100"/></g><g transform="translate(700,150) scale(0.25,0.25)"><rect width="100" height="100"/></g><g transform="translate(750,150) scale(0.25,0.25)"><rect width="100" height="100"/></g><g transform="translate(800,150) scale(0.25,0.25)"><rect width="100" height="100"/></g><g transform="translate(200,175) scale(0.25,0.25)"><rect width="100" height="100"/></g><g transform="translate(225,175) scale(0.25,0.25)"><rect width="100" height="100"/></g><g transform="translate(250,175) scale(0.25,0.25)"><rect width="100" height="100"/></g><g transform="translate(275,175) scale(0.25,0.25)"><rect width="100" height="100"/></g><g transform="translate(300,175) scale(0.25,0.25)"><rect width="100" height="100"/></g><g transform="translate(350,175) scale(0.25,0.25)"><rect width="100" height="100"/></g><g transform="translate(375,175) scale(0.25,0.25)"><rect width="100" height="100"/></g><g transform="translate(400,175) scale(0.25,0.25)"><rect width="100" height="100"/></g><g transform="translate(425,175) scale(0.25,0.25)"><rect width="100" height="100"/></g><g transform="translate(450,175) scale(0.25,0.25)"><rect width="100" height="100"/></g><g transform="translate(550,175) scale(0.25,0.25)"><rect width="100" height="100"/></g><g transform="translate(600,175) scale(0.25,0.25)"><rect width="100" height="100"/></g><g transform="translate(625,175) scale(0.25,0.25)"><rect width="100" height="100"/></g><g transform="translate(650,175) scale(0.25,0.25)"><rect width="100" height="100"/></g><g transform="translate(725,175) scale(0.25,0.25)"><rect width="100" height="100"/></g><g transform="translate(750,175) scale(0.25,0.25)"><rect width="100" height="100"/></g><g transform="translate(775,175) scale(0.25,0.25)"><rect width="100" height="100"/></g><g transform="translate(800,175) scale(0.25,0.25)"><rect width="100" height="100"/></g></g>
</svg>
